<svg xmlns="http://www.w3.org/2000/svg" width="30.433" height="23.976" viewBox="0 0 30.433 23.976"><defs><style>.a{fill:#fff;}</style></defs><g transform="translate(0 0)"><path class="a" d="M399.587,7665.038a2.369,2.369,0,0,0-.377-.026H377.74l.468-.2a4.376,4.376,0,0,0,1.23-.8l6.021-5.53a1.948,1.948,0,0,0,.316-2.65,2.306,2.306,0,0,0-3.043-.432,2.137,2.137,0,0,0-.223.172l-10.887,10a1.887,1.887,0,0,0,0,2.829l0,0,10.887,10a2.317,2.317,0,0,0,3.079,0,2.089,2.089,0,0,0,.187-.2,1.948,1.948,0,0,0-.316-2.65l-6.01-5.54a4.343,4.343,0,0,0-1.089-.73l-.653-.27h21.383a2.22,2.22,0,0,0,2.3-1.68A2.027,2.027,0,0,0,399.587,7665.038Z" transform="translate(-370.983 -7655.013)"/></g></svg>