<svg xmlns="http://www.w3.org/2000/svg" width="15.999" height="15.999" viewBox="0 0 15.999 15.999"><defs><style>.a{fill:#fff;}</style></defs><path class="a" d="M1495.373,678.627a4.687,4.687,0,0,1,0-6.628l2.651-2.651,1.26,1.26-2.651,2.651a2.906,2.906,0,0,0,4.109,4.109l2.65-2.651,1.26,1.26L1502,678.628a4.688,4.688,0,0,1-6.628,0Zm3.314-4.639,5.3-5.3,1.326,1.326-5.3,5.3Zm6.031-.6,2.651-2.651a2.906,2.906,0,0,0-4.109-4.109l-2.651,2.651-1.259-1.259,2.651-2.651a4.686,4.686,0,1,1,6.628,6.628l-2.651,2.651Z" transform="translate(-1494 -664)"/></svg>