<svg id="Layer_1" data-name="Layer 1" xmlns="http://www.w3.org/2000/svg" viewBox="0 0 465.79 153.97"><defs><style>.cls-1{opacity:0.4;}.cls-2{fill:#22ab67;}.cls-3{fill:#fff;}</style></defs><g class="cls-1"><circle class="cls-2" cx="73.9" cy="76.98" r="73.9"/></g><path class="cls-2" d="M178.6,154a77,77,0,1,1,77-77A77.07,77.07,0,0,1,178.6,154Zm0-147.81A70.83,70.83,0,1,0,249.43,77,70.9,70.9,0,0,0,178.6,6.16Z"/><rect class="cls-2" x="219.87" y="73.9" width="98.54" height="6.16"/><path class="cls-3" d="M318.14,73.9H318v6.16h.16c-.05-1-.16-2-.16-3.08S318.09,74.93,318.14,73.9Z"/><path class="cls-2" d="M391.89,3.08A73.84,73.84,0,0,0,318.14,73.9h36.79v6.16H318.14a73.86,73.86,0,1,0,73.75-77Z"/></svg>