<svg id="Layer_1" data-name="Layer 1" xmlns="http://www.w3.org/2000/svg" viewBox="0 0 445.79 154"><defs><style>.cls-1{opacity:0.4;}.cls-2{fill:#00af66;}</style></defs><g class="cls-1"><circle class="cls-2" cx="73.9" cy="76.98" r="73.9"/></g><path class="cls-2" d="M168.6,154a77,77,0,1,1,77-77A77,77,0,0,1,168.6,154Zm0-147.81A70.83,70.83,0,1,0,239.43,77v0A70.89,70.89,0,0,0,168.6,6.16Z" transform="translate(0 0)"/><rect class="cls-2" x="209.87" y="73.9" width="88.26" height="6.16"/><path class="cls-2" d="M371.89,3.08A73.85,73.85,0,0,0,298.14,73.9h36.79v6.16H298.14a73.86,73.86,0,1,0,73.75-77Z" transform="translate(0 0)"/></svg>